<?xml version="1.0" encoding="utf-8"?>
<!-- Generator: Adobe Illustrator 17.0.0, SVG Export Plug-In . SVG Version: 6.00 Build 0)  -->
<!DOCTYPE svg PUBLIC "-//W3C//DTD SVG 1.1//EN" "http://www.w3.org/Graphics/SVG/1.1/DTD/svg11.dtd">
<svg version="1.1" id="Layer_1" xmlns="http://www.w3.org/2000/svg" xmlns:xlink="http://www.w3.org/1999/xlink" x="0px" y="0px"
	 width="841.9px" height="595.3px" viewBox="0 0 841.9 595.3" enable-background="new 0 0 841.9 595.3" xml:space="preserve">
<g>
	<g>
		<path fill="#FFC20E" d="M409.8,199.3c-1.9,8.2-3,15.1-3.3,20.7c-0.3,5.7-0.3,11.7,0.3,18.2c0.3,1.8,1.8,3.2,4.2,4.1
			c2.5,0.9,5.3,1.4,8.5,1.5s6.1-0.2,8.7-1s4.1-1.9,4.7-3.3c0.9-7.1,3.5-13.6,7.7-19.5s8.9-11.9,13.8-18.1c3-4.1,2.1-8.5-2.6-13.4
			c-4.8-4.8-10.6-6.9-17.5-6.1c-5.5,0.6-10.7,2.3-15.4,4.9C414,190.1,411,194,409.8,199.3z"/>
		<path fill="#FFC20E" d="M771.6,298.9c6-14.9,12.8-27.4,20.4-37.7c2.6-2.5,4.3-5.6,5.2-9.4c0.9-3.8,0.2-8.2-2-13.2
			c-4.1-4.8-9.7-7.4-16.8-7.6c-7.1-0.3-13.5,1.9-19.1,6.4c-2.1,3-3.5,5.5-3.9,7.6c-0.5,2.1-1.5,4-3,5.8c-1.6,1.7-4.2,3.2-7.7,4.3
			c-3.6,1.2-9.6,1.8-17.9,1.9c2.2-7.1,4-15.3,5.5-24.5s1.1-17.9-1.2-26.1c-3.4-11.4-8.8-18.1-16.2-20c-7.4-1.8-14.5-0.9-21.4,2.8
			c-7.3,3.3-12.8,8.6-16.6,16.1s-5.9,15.6-6.1,24.2c-0.3,8.6,1.7,16.7,5.9,24.4c4.2,7.7,11,13.3,20.3,16.9c0.3,0.9,0.2,3.8-0.6,8.4
			c-0.8,4.7-1.9,10.2-3.5,16.3c-1.6,6.2-3.2,12.1-4.7,17.8c-0.2,0.5-0.3,1-0.4,1.5c-7,19.8-16.6,36.2-28.7,49.1
			c-13.1,13.9-24.9,21.6-35.3,23c-6.8,1.1-12.2-0.2-16-3.9c-3.8-3.7-6.2-8.4-7.2-14.1s-0.8-11.7,0.5-18c1.3-6.2,3.2-11.8,5.7-16.7
			c9.3,3.1,18,2.8,26.1-0.9c8.1-3.7,14.9-9.2,20.5-16.5c5.6-7.2,9.8-15.2,12.6-23.9c2.8-8.7,3.9-16.9,3.3-24.4
			c-0.6-7.5-3-13.5-7.4-18c-4.3-4.5-11.1-5.7-20.1-3.7c-15.9,3.6-29.2,11.1-39.8,22.6c-10.7,11.5-19.5,24.9-26.6,40.4
			c-0.2,0.5-0.4,1-0.6,1.5c-0.3,0.5-0.6,1.1-0.8,1.7c-0.9,2.5-2.1,5.4-3.5,8.7c-1.4,3.3-3,6.4-4.9,9.3s-4,5.3-6.2,7.1
			c-2.3,1.8-5.1,2.5-8.3,2.1c4.2-11.1,7.2-21.9,8.9-32.6s2-20.4,1-29.2c-1.1-8.8-3.7-15.9-8-21.3s-10.1-8.5-17.4-9.1
			c-6.9-0.3-13.5,1.8-20,6.1c-6.5,4.4-12.2,9.6-17.3,15.6c3.4-16.1,6.8-30.7,10.4-43.8s7-25.1,10.3-36c3.3-10.9,6.5-21.2,9.6-30.9
			s6-19.5,8.9-29.4c1.4-5.9,0.9-10.4-1.6-13.5s-5.8-5.2-9.9-6.1c-4.1-1-8.1-1-12-0.1c-3.9,0.9-6.6,2.9-8,5.9
			c-2.8,7.1-6.5,17-11,29.8s-9.1,27.6-13.8,44.4c-4.8,16.8-9.3,35.1-13.6,54.9s-8,39.9-10.9,60.1c-1,8.2-2.3,18.1-4.1,29.7
			c-1.4,9.6-2.1,18.9-1.9,27.9c-0.8,1.4-1.5,2.9-2.4,4.2c-3.8,6.5-8.2,11.6-13,15.2s-10.2,5-16.1,4.3c-6.4-0.7-9.6-6.3-9.6-16.8
			s1.2-22.4,3.9-35.6c2.6-13.2,5.9-25.7,9.9-37.6c3.9-11.9,6.7-19.8,8.3-23.8c1.6-4.4,0.7-7.4-2.9-9.2c-3.6-1.7-7.9-2.5-12.9-2.4
			s-10.2,1.1-15.3,2.8c-5.2,1.8-8.3,4.1-9.4,7c-3.2,7.9-6.6,18.1-10.1,30.6c-3.5,12.6-6,25.4-7.5,38.4s-1.4,25.2,0.2,36.5
			s5.7,19.6,12.2,24.9c4.4,3.2,9,5.4,13.7,6.5c4.8,1.1,10.6,1.2,17.5,0.5c9.7-1.1,18.5-4.8,26.5-11.1c3.8-3,7.3-6.3,10.5-9.8
			c1,3.1,2.2,6,3.6,8.7c4,7.8,11.3,12,21.9,12.6c8.2,0.5,15.7-0.7,22.4-3.7c6.7-3,12.5-7,17.6-12.1s9.5-10.7,13.2-16.7
			s7-11.9,9.8-17.5c7.7,1.2,15,0.1,22-3.5c-0.3,7.9,0.3,15.3,2.1,22.2c2.5,10.1,7.7,18.3,15.3,24.4s18.7,8.3,33.3,6.4
			c21.9-3,41.3-14,58.3-32.8c9.4-10.5,17.2-22.3,23.2-35.5c7-14.3,12.5-29.2,16.4-41.3c1.5-4.5,2.7-8.6,3.8-12.2
			c0.9-3.2,1.8-6.7,2.8-10.5c0.5-2,0.8-3.1,0.8-3.1c5.2-0.8,9-1.1,11.5-1.1c2.5,0.1,6.4-0.5,11.6-1.8c-4,6.8-7.7,16.3-11.1,28.7
			c-3.4,12.3-6.3,24.9-8.6,37.6c-1.3,7.5-2,15.4-2.2,23.6s0.8,15.9,3,23.2c2.2,7.3,5.9,13.4,11.2,18.1c3.2,2.9,7.1,5,11.9,6.2
			c0.4,0.1,0.9,0.2,1.3,0.3c0.8,0.2,1.5,0.3,2.2,0.5c11.4,2.2,24.5-0.2,33.2-7.9c0.1-0.1,0.2-0.1,0.2-0.2c0.3-0.2,0.6-0.5,0.9-0.8
			c1.2-1.1,2.3-2.4,3.3-3.7c9.5-13.2,3.9-16.7-8.3-9.7c-1,0.8-2,1.4-3,1.9c-3.8,2.1-7.7,3.3-12,3.6c-6.1,0.4-9.5-4.3-10.2-14
			c-0.8-9.8,0.3-21.6,3.2-35.5C761.1,328.2,765.6,313.8,771.6,298.9z M615.3,306c1.8-5.2,4.3-10.6,7.5-16.4
			c3.2-5.7,6.7-10.8,10.6-15.3c3.9-4.5,7.2-6.5,10-6.2c4.2,1,6.2,4.4,6,10.4s-1.8,12.2-5,18.6c-3.1,6.4-7.3,11.8-12.6,16.1
			c-5.3,4.3-10.8,5-16.4,1.9C613.5,314.2,613.4,311.1,615.3,306z M523.7,300.3c-0.5,8.1-1.7,17-3.3,26.7c-1.7,9.7-4.1,18.8-7.2,27.3
			c-3.1,8.5-6.4,15.9-10.2,22.2c-3.7,6.3-7.7,10-11.8,11.2c-3.7,1.1-5.9-1.8-6.8-8.8c-0.9-6.9-0.9-15.2-0.1-24.7s1.9-18.9,3.4-28.1
			s2.7-15.3,3.6-18.3c3.3-10,7.5-18.3,12.6-25.1c5.1-6.7,9.2-10.1,12.5-10.2c3.2-0.1,5.3,2.5,6.4,7.8
			C524,285.6,524.3,292.2,523.7,300.3z M711.5,235.7c-0.2,3.2-0.7,4.9-1.6,5c-0.9,0.1-1.9-1.5-2.9-4.7c-1.1-3.2-1.8-6.8-2.3-10.7
			s-0.8-7.5-0.8-10.8c-0.1-3.3,0.3-4.9,1.2-5c1.4-0.1,2.5,1.5,3.3,4.7s1.6,6.8,2.3,10.7C711.4,228.9,711.7,232.5,711.5,235.7z"/>
		<path fill="#FFC20E" d="M719.5,275.9c-1,3.8-1.9,7.2-2.8,10.5C718,281.9,718.9,278.3,719.5,275.9z"/>
	</g>
	<path fill="#FFC20E" d="M705,391.2L705,391.2c-0.7,7.8-4.6,28.5-37.2,61.7c-0.1,0.1-0.1,0.2-0.2,0.2c-4.4,4.7-9.1,9.1-13.9,13.4
		c-9.8,8.3-20.3,15.9-31.6,22.3c-22.4,12.8-47.3,21.3-72.8,25.4c-25.5,4-51.5,3.6-76.7-0.5c-6.3-0.8-12.5-2.4-18.7-3.8
		c-6.2-1.3-12.3-3.2-18.4-5c-6.1-1.7-12-3.9-17.9-6.2l-8.9-3.3l-8.6-3.8c-23-10-44.9-22.1-65.5-35.9c-27.1-18-47.9-31.1-71.3-45.1
		c-5.4-2.9-11.5-5.9-20.8-10.8c-24.3-12.6-57-24.5-92.1-31.1c-17.6-2.8-35.4-4.1-53.2-2.2c-17.6,1.8-35.7,6.4-51.2,14.9
		c-0.1,0-0.1,0-0.1,0.1c-0.4,0.3-0.8,0.5-1.3,0.5c-1.5,0.2-2.8-0.8-3-2.3c-0.1-0.9,0.3-1.8,0.9-2.3c0.2-0.1,0.2-0.2,0.4-0.3
		c14.8-12.9,33.2-20.2,52-24.8c19-4.3,38.8-5,58.3-3.3c29.4,3.2,57.8,12,84.3,24.1c2.3-4.7,4.5-10.1,7-16.7c0.4-0.9,0.7-1.8,1-2.7
		c-25.9-14.4-53.4-25.5-82.1-30.9c-14.8-2.4-29.9-3.5-45-1.9c-14.8,1.5-30.2,5.4-43.3,12.6c0,0,0,0-0.1,0c-0.3,0.2-0.7,0.4-1.1,0.5
		c-1.3,0.1-2.4-0.7-2.5-2c-0.1-0.8,0.2-1.5,0.8-2c0.1-0.1,0.2-0.2,0.3-0.3c12.5-10.9,28-17.1,43.9-20.9c16.1-3.6,32.8-4.3,49.2-2.8
		c30.3,3.2,59.2,13.6,85.7,27.5c1.5-6.2,3-12.8,4.7-19.7c0.2-1,0.5-2.1,0.7-3.1c-3.6-1.9-7.1-3.9-10.3-5.6
		c-20.6-11.7-42.6-20.7-65.6-25.1c-11.5-1.8-23.2-2.7-34.8-1.5c-11.5,1.2-23.4,4.2-33.5,9.8c0,0,0,0-0.1,0c-0.2,0.2-0.5,0.3-0.9,0.4
		c-1,0.1-1.8-0.6-2-1.5c-0.1-0.6,0.2-1.2,0.6-1.5c0.1-0.1,0.2-0.2,0.3-0.2c9.7-8.4,21.7-13.2,34-16.2c12.5-2.8,25.4-3.3,38.2-2.2
		c25.4,2.7,49.7,11.9,71.6,24.1c2.1,1.1,4,2.1,5.8,3.1l-0.1,2.8c2.5-11,4.9-22.4,7.3-34.3c3.7-18,7.6-35.9,11.8-53.6
		c4.2-17.7,9-34.6,14.5-50.7c5.6-16,12-30.2,19.2-42.2c10.8-17.4,23.8-29.5,38.9-36.3s29.5-8.8,43-6c11.6,2.4,21.7,7.8,30.1,16.3
		c4.7,5.9,6.9,13,3.7,20.9c-8.7,21.1-21.3,19-20.3,8.5c0.9-9.1-4.5-18.7-5.9-20.9c-0.2-0.3-0.3-0.5-0.3-0.5s0-0.1-0.2-0.2
		c-0.9-1.7-2-3.1-3.1-4.3c-3.6-4-8-5.9-13-5.8c-6.6,0.5-13.8,4-21.6,11c-7.8,6.9-14.5,17.1-20.3,30.3c-7.1,15.7-12.9,36-17.4,61.2
		c-4.6,25.1-9.1,50.8-13.6,77.2s-9.3,51.7-14.6,75.9c-4,18.3-8.4,36.2-14.2,54.2c23.4,13.7,49.7,30.2,62.8,37.4
		c41.2,22.9,85.8,38.6,130.5,44.1c22.3,2.8,44.8,2.8,66.7-0.2c21.9-3.2,43.3-9.6,63.5-19c14-6.7,27.6-14.6,40.2-24.1l0,0l0,0
		c0,0,0,0,0.1,0s0.1-0.1,0.2-0.1l0.1-0.1c4.9-3.7,9.7-7.7,14.3-11.9c0.1-0.1,0.2-0.1,0.2-0.2c0.3-0.3,0.6-0.5,0.8-0.8
		c4.8-4.3,9.3-8.9,13.6-13.7l0,0c3.3-3.7,6.5-7.6,9.5-11.6c0.6-0.8,1.1-1.6,1.7-2.4C699.9,380.5,706.4,373.5,705,391.2z"/>
</g>
</svg>
